<svg version="1" xmlns="http://www.w3.org/2000/svg" width="2560" height="2560" viewBox="0 0 1920.000000 1920.000000"><path d="M1642.8 229.7c-6.3 10.4-22 35.9-34.8 56.8-12.8 20.9-24.7 40.2-26.5 43-1.7 2.7-4.2 6.8-5.5 9-1.3 2.2-2.8 4.1-3.2 4.3-.4.2-.8.9-.8 1.4 0 1.1-1.5 3.6-9.5 16.3-1.8 2.7-12.9 20.7-24.7 40-11.8 19.2-38.5 62.7-59.3 96.5-20.8 33.8-42 68.5-47.3 77-5.2 8.5-10.5 17.1-11.7 19-4 6.2-39.7 64.4-41.7 68-1.1 1.9-4.2 6.8-6.8 11-2.6 4.1-6.8 10.9-9.3 15-2.5 4.1-7.9 12.9-11.9 19.4-4 6.6-7.5 12.4-7.7 13-.2.6-.7 1.3-1.1 1.6-.5.4-6 9.2-10.5 16.8-.5.9-5.9 9.7-12 19.5-6 9.8-11.7 19-12.6 20.5-3.5 5.9-15.2 24.9-17.3 28.2-1.3 1.9-20.7 33.4-43.1 70-22.4 36.6-41.7 68.1-43 70-2.7 4.2-11.6 18.7-13 21.2-.5 1-12.2 20-26 42.2-13.7 22.3-25.7 41.9-26.7 43.6-.9 1.7-2.2 3.9-3 4.8-.7.9-1.9 2.8-2.7 4.2-.8 1.4-9.7 16-19.9 32.5-10.1 16.5-25.1 40.8-33.2 54-8.1 13.2-21.9 35.6-30.6 49.7-8.7 14.2-16.3 26.6-16.9 27.5-1.3 2.3-61 99.6-64 104.3-8 12.5-25.5 41.4-25.5 42.1 0 .3 160.7.6 357 .6h357V791.9c0-319.5-.1-580.9-.3-580.9-.2 0-5.5 8.4-11.9 18.7zM265 1128.3c0 319.6.4 580.7.8 580.1 1.3-1.4 11.2-17.4 11.2-18 0-.3.9-1.7 1.9-3.2 1.1-1.5 14.2-22.7 29.2-47.2 14.9-24.5 28.6-46.8 30.4-49.5 1.7-2.8 6-9.7 9.5-15.5 3.5-5.8 7.8-12.8 9.5-15.5 1.8-2.8 12.9-20.8 24.7-40 11.8-19.3 36.7-59.8 55.3-90 18.6-30.3 39.9-64.9 47.3-77 7.4-12.1 14.5-23.6 15.7-25.5 3.4-5.3 53.6-87.1 55.2-90 .8-1.4 3.1-5.2 5.3-8.5 2.1-3.3 7.2-11.6 11.4-18.5s11-17.9 15-24.5c4.1-6.6 10.1-16.3 13.2-21.5 3.2-5.2 8.2-13.2 11.1-17.8 2.9-4.5 5.3-8.4 5.3-8.6 0-.4 9.9-16.5 14.5-23.6 2.2-3.4 46.5-75.5 48.8-79.5.7-1.1 2.6-4.2 4.3-7 5.1-8.1 32.5-52.7 34.4-56 2.5-4.3 27.7-45.3 30.5-49.5 1.2-1.9 8-13 15-24.5 7-11.6 13.8-22.6 15-24.5 1.3-1.9 8.5-13.6 16-26 7.6-12.4 15.2-24.8 17-27.5 3.4-5.5 7.4-12 9-14.7 1-1.8 12.1-19.8 27.5-44.8 4.3-6.9 20.2-32.8 35.3-57.5 15.2-24.8 28.1-45.5 28.7-46.2.5-.7 1-1.4 1-1.7 0-.2 3.8-6.7 8.5-14.3 4.7-7.6 8.9-14.5 9.4-15.3.5-.8 11.1-18 23.5-38.1s22.8-37.2 23.1-38.1c.5-1.4-34.8-1.5-356.4-1.5l-357.1-.1v581.1z"/></svg>