<svg viewBox="0 0 45671 7584" xmlns="http://www.w3.org/2000/svg" fill-rule="evenodd" clip-rule="evenodd" stroke-linejoin="round" stroke-miterlimit="2"><g fill="#292929" fill-rule="nonzero"><path d="M9661.11 5838.91l1966.7-3225.52H9953.5v-935.646h3548.68l-1975.94 3225.52h1840.51v935.646H9661.1zM13853.9 5838.91V1677.75h2717.68v935.646h-1643.54v701.735h1637.38v892.557h-1637.38v695.578h1643.54v935.646H13853.9zm685.24-4764.41l1046.3-914.102 503.842 634.024-1235.3 707.89-314.847-427.812zM18326.4 3749.1c0-405.113 92.55-769.301 277.65-1092.57 185.099-323.263 447.737-579.521 787.912-768.772 340.175-189.252 742.122-283.878 1205.84-283.878 192.874 0 369.846 11.213 530.917 33.64 161.071 22.426 297.006 63.214 407.806 122.366v1075.11c-55.4-47.193-153.889-101.054-295.467-161.584-141.578-60.53-355.997-90.795-643.256-90.795-238.016 0-444.74 49.758-620.174 149.273-175.433 99.515-312.395 236.989-410.884 412.423-98.489 175.433-147.733 377.028-147.733 604.784 0 344.712 106.696 625.303 320.089 841.774 213.393 216.47 499.627 324.706 858.702 324.706 283.156 0 496.549-27.7 640.178-83.101 143.63-55.4 243.145-104.644 298.545-147.733v1082.47c-92.333 41.293-227.243 76.391-404.728 105.293-177.486 28.903-355.484 43.354-533.995 43.354-496.549 0-912.707-96.197-1248.47-288.59-335.767-192.394-590.197-451.665-763.29-777.814-173.093-326.148-259.64-692.934-259.64-1100.36zM22198.3 1677.75h1074.15v4161.16H22198.3zM23949.5 5838.91V1677.75h1587.94c263.632 0 502.12 48.852 715.465 146.556 213.344 97.703 382.406 242.728 507.185 435.073 124.778 192.345 187.167 431.475 187.167 717.388 0 284.406-61.636 528.112-184.907 731.118-123.272 203.005-290.282 357.575-501.03 463.711-210.748 106.135-446.35 159.203-706.808 159.203h-530.869v1508.11h-1074.15zm1074.15-2357.58h248.387c165.591 0 304.091-36.693 415.5-110.079 111.41-73.386 167.114-196.738 167.114-370.055 0-173.286-55.704-295.604-167.114-366.954-111.409-71.35-249.909-107.025-415.5-107.025h-248.387v954.113zM27293.7 5838.91V1677.75h1768.72c245.228 0 462.869 52.539 652.922 157.616 190.053 105.078 339.743 253.941 449.068 446.591 109.325 192.65 163.988 422.891 163.988 690.722 0 264.209-44.636 478.74-133.907 643.593-89.272 164.854-196.297 289.272-321.076 373.254-124.778 83.981-239.922 135.19-345.433 153.624l1003.36 1695.76h-1204.23l-879.236-1612.85h-80.022v1612.85h-1074.15zm1074.15-2347.05h313.933c141.578 0 269.306-33.792 383.184-101.375 113.878-67.583 170.817-195.583 170.817-384.001 0-186.398-55.913-312.876-167.739-379.433-111.826-66.557-237.502-99.836-377.028-99.836h-323.167v964.645zM30958 1677.75h1074.15v4161.16H30958zM32407.6 5838.91l1680.47-4161.16h1055.68l1677.39 4161.16h-1144.93l-286.234-781.756h-1545.05l-286.234 781.756h-1151.09zm1797.42-1717.4h827.924l-409.345-1151.09h-9.234l-409.345 1151.09zM37116.7 5838.91V1677.75h1458.87l1449.64 2994.68V1677.75h1074.15v4161.16h-1468.1l-1440.4-3013.15v3013.15h-1074.15zM41401.2 3758.33c0-302.039 53.717-584.057 161.151-846.053 107.434-261.997 257.941-491.107 451.52-687.332 193.58-196.224 420.094-348.791 679.541-457.7 259.448-108.908 540.191-163.363 842.23-163.363 306.528 0 589.7 54.455 849.517 163.363 259.816 108.909 485.64 261.476 677.472 457.7 191.833 196.225 341.033 425.335 447.601 687.332 106.569 261.996 159.853 544.014 159.853 846.053 0 303.258-51.761 586.013-155.284 848.266-103.522 262.253-250.182 491.219-439.979 686.899-189.796 195.679-415.116 348.326-675.958 457.94-260.842 109.614-548.582 164.421-863.222 164.421-429.735 0-804.231-95.788-1123.49-287.364-319.256-191.576-567.563-449.741-744.92-774.495-177.357-324.754-266.036-689.976-266.036-1095.67zm1092.61 0c0 211.918 43.666 405.827 130.998 581.725 87.332 175.899 209.081 315.794 365.246 419.685 156.166 103.891 338.028 155.837 545.585 155.837 205.475 0 386.815-51.946 544.023-155.837 157.207-103.891 279.477-243.273 366.809-418.146 87.332-174.872 130.998-369.294 130.998-583.264 0-211.918-43.666-405.313-130.998-580.186-87.332-174.872-209.081-314.254-365.246-418.145-156.166-103.892-338.028-155.837-545.586-155.837-207.557 0-389.419 51.945-545.585 155.837-156.165 103.891-277.914 243.273-365.246 418.145-87.332 174.873-130.998 368.268-130.998 580.186z"/></g><g fill="#d10007"><path d="M7026.84 0v5878.2H3413.29L7026.84 0zM0 7583.33v-5878.2h3613.55L0 7583.33z"/></g></svg>